<svg version="1.1" xmlns="http://www.w3.org/2000/svg" xmlns:xlink="http://www.w3.org/1999/xlink" width="83.28621" height="58.96789" viewBox="0,0,83.28621,58.96789"><g transform="translate(-224.73506,-103.348)"><g data-paper-data="{&quot;isPaintingLayer&quot;:true}" fill-rule="evenodd" stroke="none" stroke-width="1" stroke-linecap="butt" stroke-linejoin="round" stroke-miterlimit="2" stroke-dasharray="" stroke-dashoffset="0" style="mix-blend-mode: normal"><path d="M239.9995,133.51096c-8.42472,0 -15.26443,-6.75774 -15.26443,-15.08148c0,-8.32374 6.83973,-15.08148 15.26443,-15.08148c27.64315,0 51.93363,14.31109 65.67162,35.84522c4.49175,7.04181 2.35222,16.36192 -4.77451,20.80033c-7.12674,4.43841 -16.56067,2.32452 -21.05241,-4.71705c-8.33538,-13.06798 -23.06932,-21.76555 -39.84469,-21.76555z" fill="#000000"/><path d="M239.9995,130.79135c-6.90554,0 -12.51183,-5.53911 -12.51183,-12.36187c0,-6.82276 5.6063,-12.36187 12.51183,-12.36187c26.66472,0 50.09188,13.80476 63.34442,34.57591c3.68099,5.77176 1.92682,13.41139 -3.9137,17.04924c-5.84302,3.6381 -13.57534,1.90545 -17.25633,-3.8663c-8.82335,-13.83145 -24.4181,-23.03511 -42.1744,-23.03511z" fill="#00caff"/></g></g></svg>