<svg version="1.1" xmlns="http://www.w3.org/2000/svg" xmlns:xlink="http://www.w3.org/1999/xlink" width="78.94219" height="78.37267" viewBox="0,0,78.94219,78.37267"><g transform="translate(-234.90578,-106.7231)"><g data-paper-data="{&quot;isPaintingLayer&quot;:true}" stroke="none" stroke-width="1" stroke-linecap="butt" stroke-dasharray="" stroke-dashoffset="0" style="mix-blend-mode: normal"><g><path d="M287.72857,111.16983c5.97226,-5.92915 15.669,-5.92883 21.64103,0.00008c5.97101,5.92978 5.97133,15.55653 -0.00005,21.48466l-48.34333,47.99447c-5.97226,5.92915 -15.669,5.92883 -21.64103,-0.00009c-5.9729,-5.92791 -5.97221,-15.55552 0.00005,-21.48466z" fill="#000000" fill-rule="nonzero" stroke-linejoin="miter" stroke-miterlimit="10"/><path d="M289.68038,113.10709c4.89499,-4.85984 12.84351,-4.85981 17.73854,-0.00011c4.89522,4.85988 4.89519,12.75089 0.00007,17.61067l-48.34333,47.99451c-4.89512,4.85978 -12.84384,4.85957 -17.7383,0.00044c-4.89502,-4.86045 -4.89513,-12.75152 -0.00001,-17.6113z" fill="#ff7ab5" fill-rule="evenodd" stroke-linejoin="round" stroke-miterlimit="2"/></g></g></g></svg>