<svg version="1.1" xmlns="http://www.w3.org/2000/svg" xmlns:xlink="http://www.w3.org/1999/xlink" width="46.43238" height="46.09709" viewBox="0,0,46.43238,46.09709"><g transform="translate(-267.64457,-106.47117)"><g data-paper-data="{&quot;isPaintingLayer&quot;:true}" stroke="none" stroke-width="1" stroke-linecap="butt" stroke-dasharray="" stroke-dashoffset="0" style="mix-blend-mode: normal"><path d="M287.9565,110.91838c5.97226,-5.92915 15.66988,-5.92983 21.6417,-0.00075c5.97172,5.92917 5.97173,15.55618 -0.00042,21.48523l-15.83311,15.71878c-5.97216,5.92906 -15.6689,5.92874 -21.64063,-0.00043c-5.9724,-5.92834 -5.97272,-15.55508 -0.00046,-21.48423z" fill="#000000" fill-rule="nonzero" stroke-linejoin="miter" stroke-miterlimit="10"/><path d="M289.9081,112.85414c4.89503,-4.85988 12.84344,-4.85994 17.73865,-0.00007c4.89502,4.85969 4.89508,12.7508 -0.00006,17.6106l-15.83324,15.71912c-4.8952,4.85949 -12.84375,4.85949 -17.7382,0.00036c-4.89553,-4.85993 -4.89553,-12.7511 -0.00029,-17.611z" fill="#ff7ab5" fill-rule="evenodd" stroke-linejoin="round" stroke-miterlimit="2"/></g></g></svg>