<svg version="1.1" xmlns="http://www.w3.org/2000/svg" xmlns:xlink="http://www.w3.org/1999/xlink" width="109.80439" height="109.01302" viewBox="0,0,109.80439,109.01302"><g transform="translate(-203.9267,-106.77624)"><g data-paper-data="{&quot;isPaintingLayer&quot;:true}" stroke="none" stroke-width="1" stroke-linecap="butt" stroke-dasharray="" stroke-dashoffset="0" style="mix-blend-mode: normal"><g><path d="M287.60699,111.22542c5.97834,-5.93435 15.66786,-5.9281 21.64799,-0.00613c5.97,5.93065 5.96931,15.55826 -0.00903,21.49262l-79.20402,78.6325c-5.96821,5.92567 -15.66785,5.9281 -21.63785,-0.00256c-5.97,-5.93065 -5.96931,-15.55826 -0.0011,-21.48393z" fill="#000000" fill-rule="nonzero" stroke-linejoin="miter" stroke-miterlimit="10"/><path d="M289.56293,113.15999c4.89505,-4.8599 12.84344,-4.85993 17.73849,-0.00009c4.89518,4.85972 4.89518,12.75088 0.0001,17.61062l-79.20732,78.63569c-4.89505,4.8599 -12.84356,4.85931 -17.73802,0.00018c-4.89604,-4.85943 -4.89528,-12.75135 -0.00007,-17.61122z" fill="#ff7ab5" fill-rule="evenodd" stroke-linejoin="round" stroke-miterlimit="2"/></g></g></g></svg>