<svg version="1.1" xmlns="http://www.w3.org/2000/svg" xmlns:xlink="http://www.w3.org/1999/xlink" width="49.59178" height="33.10393" viewBox="0,0,49.59178,33.10393"><g transform="translate(-224.73507,-103.348)"><g data-paper-data="{&quot;isPaintingLayer&quot;:true}" fill-rule="evenodd" stroke="none" stroke-width="1" stroke-linecap="butt" stroke-linejoin="round" stroke-miterlimit="2" stroke-dasharray="" stroke-dashoffset="0" style="mix-blend-mode: normal"><path d="M239.9995,133.51096c-8.42472,0 -15.26443,-6.75774 -15.26443,-15.08148c0,-8.32374 6.83973,-15.08148 15.26443,-15.08148c8.27482,0 16.24987,1.28613 23.72945,3.66109c8.02259,2.54655 12.44177,11.0478 9.86183,18.97226c-2.57744,7.9247 -11.18058,12.29091 -19.20067,9.74462c-4.53679,-1.44041 -9.37387,-2.215 -14.39061,-2.215z" fill="#000000"/><path d="M239.9995,130.79135c-6.90554,0 -12.51183,-5.53911 -12.51183,-12.36187c0,-6.82276 5.6063,-12.36187 12.51183,-12.36187c7.98205,0 15.67183,1.2399 22.88865,3.5308c6.57372,2.08718 10.19464,9.05557 8.08264,15.55099c-2.112,6.49567 -9.16367,10.07467 -15.73989,7.98725c-4.80204,-1.52447 -9.91938,-2.3453 -15.23141,-2.3453z" fill="#00caff"/></g></g></svg>