<svg version="1.1" xmlns="http://www.w3.org/2000/svg" xmlns:xlink="http://www.w3.org/1999/xlink" width="147.66493" height="146.59845" viewBox="0,0,147.66493,146.59845"><g transform="translate(-166.16754,-106.70078)"><g data-paper-data="{&quot;isPaintingLayer&quot;:true}" stroke="none" stroke-width="1" stroke-linecap="butt" stroke-dasharray="" stroke-dashoffset="0" style="mix-blend-mode: normal"><path d="M287.71931,111.14512c5.96821,-5.92567 15.66698,-5.92709 21.63698,0.00356c5.96913,5.93166 5.96668,15.56128 0.00197,21.48292l-117.06685,116.22171c-5.97483,5.93033 -15.66435,5.92408 -21.64623,0.00412c-5.97175,-5.92864 -5.97106,-15.55625 0.00728,-21.49061z" fill="#000000" fill-rule="nonzero" stroke-linejoin="miter" stroke-miterlimit="10"/><path d="M170.6478,132.63458c-5.97203,-5.92892 -5.97134,-15.55653 0.00092,-21.48567c5.97226,-5.92915 15.66901,-5.92883 21.64002,0.00096l29.62811,29.41234c5.97203,5.92892 5.97133,15.55652 -0.00093,21.48567c-5.97226,5.92915 -15.669,5.92883 -21.64002,-0.00096z" fill="#000000" fill-rule="nonzero" stroke-linejoin="miter" stroke-miterlimit="10"/><g fill="#ff7ab5" fill-rule="evenodd" stroke-linejoin="round" stroke-miterlimit="2"><g><path d="M172.60021,130.69678c-4.89524,-4.85971 -4.89528,-12.75072 -0.00007,-17.6106c4.89502,-4.85969 12.84353,-4.85972 17.73865,0.00007l29.62765,29.41357c4.89493,4.85997 4.89495,12.75114 0.00049,17.61027c-4.89635,4.861 -12.8442,4.8598 -17.73927,0.00007z"/></g><g><path d="M289.66861,113.08659c4.89502,-4.85987 12.84338,-4.85987 17.73859,0c4.89502,4.85969 4.89502,12.75066 0,17.61053l-117.06723,116.22227c-4.89502,4.85913 -12.84356,4.85913 -17.73784,0c-4.89635,-4.85913 -4.89635,-12.75028 0,-17.61128z"/></g></g></g></g></svg>