<svg version="1.1" xmlns="http://www.w3.org/2000/svg" xmlns:xlink="http://www.w3.org/1999/xlink" width="147.66594" height="146.60019" viewBox="0,0,147.66594,146.60019"><g transform="translate(-166.16703,-106.69991)"><g data-paper-data="{&quot;isPaintingLayer&quot;:true}" fill-rule="evenodd" stroke="none" stroke-width="1" stroke-linecap="butt" stroke-linejoin="round" stroke-miterlimit="2" stroke-dasharray="" stroke-dashoffset="0" style="mix-blend-mode: normal"><g><g fill="#000000"><path d="M218.35903,180.00002l-47.71295,-47.3685c-5.97207,-5.92895 -5.97207,-15.55595 0,-21.4849c5.97207,-5.92895 15.66925,-5.92895 21.64113,0l47.71314,47.3685l47.71201,-47.3685c5.97226,-5.92895 15.67057,-5.92895 21.64283,0c5.97037,5.92895 5.97037,15.55595 0,21.4849l-47.71371,47.3685l47.71371,47.3685c5.97037,5.92895 5.97037,15.55613 0,21.48471c-5.97226,5.92915 -15.67057,5.92915 -21.64283,0l-47.71201,-47.36831l-47.71314,47.36831c-5.97188,5.92915 -15.66906,5.92915 -21.64113,0c-5.97207,-5.92858 -5.97207,-15.55576 0,-21.48471z"/></g><g fill="#ff7ab5"><path d="M222.26157,180.00002l-49.66413,-49.30578c-4.89522,-4.85969 -4.89522,-12.75066 0,-17.61053c4.89502,-4.85969 12.84337,-4.85969 17.73859,0l49.66432,49.30578l49.66375,-49.30578c4.89635,-4.85969 12.84489,-4.85969 17.73935,0c4.89446,4.85987 4.89446,12.75084 0,17.61053l-49.66451,49.30578l49.66451,49.30578c4.89446,4.85969 4.89446,12.75084 0,17.60978c-4.89446,4.861 -12.843,4.861 -17.73935,0l-49.66375,-49.30484l-49.66432,49.30484c-4.89522,4.861 -12.84356,4.861 -17.73859,0c-4.89522,-4.85894 -4.89522,-12.75009 0,-17.60978z"/></g></g></g></g></svg>