<svg version="1.1" xmlns="http://www.w3.org/2000/svg" xmlns:xlink="http://www.w3.org/1999/xlink" width="147.66745" height="146.60123" viewBox="0,0,147.66745,146.60123"><g transform="translate(-166.16628,-106.69939)"><g data-paper-data="{&quot;isPaintingLayer&quot;:true}" stroke="none" stroke-width="1" stroke-linecap="butt" stroke-dasharray="" stroke-dashoffset="0" style="mix-blend-mode: normal"><path d="M218.35983,179.99818l-47.71193,-47.36748c-5.97175,-5.92864 -5.96931,-15.55826 -0.0046,-21.47991c5.97346,-5.9317 15.67311,-5.93413 21.64486,-0.00549l47.71331,47.36885l47.71767,-47.37319c5.96471,-5.92165 15.66436,-5.92407 21.63611,0.00456c5.97175,5.92864 5.9693,15.55826 0.00459,21.47991l-47.96305,47.6168c3.78833,5.87854 3.0942,13.7908 -2.07773,18.92539c-5.17193,5.13459 -13.14172,5.82371 -19.06301,2.06273l-47.96306,47.6168c-5.98358,5.94039 -15.6731,5.93413 -21.64623,0.00412c-5.97175,-5.92864 -5.97806,-15.5482 0.00553,-21.48859z" fill="#000000" fill-rule="nonzero" stroke-linejoin="miter" stroke-miterlimit="10"/><path d="" fill="#000000" fill-rule="nonzero" stroke-linejoin="miter" stroke-miterlimit="10"/><path d="" fill="#000000" fill-rule="nonzero" stroke-linejoin="miter" stroke-miterlimit="10"/><path d="" fill="#000000" fill-rule="nonzero" stroke-linejoin="miter" stroke-miterlimit="10"/><path d="" fill="#000000" fill-rule="nonzero" stroke-linejoin="miter" stroke-miterlimit="10"/><g fill="#ff7ab5" fill-rule="evenodd" stroke-linejoin="round" stroke-miterlimit="2"><g><path d=""/></g><g><path d=""/></g></g><g fill="#ff7ab5" fill-rule="evenodd" stroke-linejoin="round" stroke-miterlimit="2"><g><path d="M172.60007,130.69496c-4.89512,-4.85978 -4.89526,-12.75072 -0.00004,-17.6106c4.89503,-4.85969 12.84354,-4.85973 17.73866,0.00004l67.02655,66.54248c4.89438,4.85998 4.89457,12.75077 -0.0003,17.61138c-4.89446,4.85913 -12.84309,4.85906 -17.73875,-0.00125z"/></g><g><path d="M289.66666,113.0845c4.89502,-4.85987 12.84337,-4.85987 17.73859,0c4.89502,4.85969 4.89502,12.75066 0,17.61053l-117.06722,116.22227c-4.89502,4.85913 -12.84356,4.85913 -17.73784,0c-4.89635,-4.85913 -4.89635,-12.75028 0,-17.61128z"/></g></g><path d="" fill="#ff7ab5" fill-rule="evenodd" stroke-linejoin="round" stroke-miterlimit="2"/><g fill-rule="evenodd" stroke-linejoin="round" stroke-miterlimit="2"><g fill="#000000"><path d=""/></g><g fill="#ff7ab5"><path d=""/></g></g><g fill-rule="evenodd" stroke-linejoin="round" stroke-miterlimit="2"><g fill="#000000"><path d=""/></g><g fill="#ff7ab5"><path d=""/></g></g></g></g></svg>