<svg version="1.1" xmlns="http://www.w3.org/2000/svg" xmlns:xlink="http://www.w3.org/1999/xlink" width="155.16479" height="153.30402" viewBox="0,0,155.16479,153.30402"><g transform="translate(-162.41761,-103.34799)"><g data-paper-data="{&quot;isPaintingLayer&quot;:true}" fill-rule="evenodd" stroke="none" stroke-width="1" stroke-linecap="butt" stroke-linejoin="round" stroke-miterlimit="2" stroke-dasharray="" stroke-dashoffset="0" style="mix-blend-mode: normal"><g><g fill="#000000"><path d="M239.99949,103.34799c42.81751,0 77.5829,34.34673 77.5829,76.65201c0,42.3053 -34.76539,76.65201 -77.5829,76.65201c-42.81851,0 -77.58189,-34.34673 -77.58189,-76.65201c0,-42.3053 34.76338,-76.65201 77.58189,-76.65201zM239.99949,133.51097c-25.96931,0 -47.05301,20.83099 -47.05301,46.48905c0,25.65805 21.0837,46.48905 47.05301,46.48905c25.96907,0 47.05402,-20.83099 47.05402,-46.48905c0,-25.65805 -21.08495,-46.48905 -47.05402,-46.48905z"/></g><g fill="#00caff"><path d="M239.99949,106.06761c41.29857,0 74.83028,33.12809 74.83028,73.9324c0,40.80431 -33.53172,73.9324 -74.83028,73.9324c-41.29932,0 -74.82929,-33.12809 -74.82929,-73.9324c0,-40.80431 33.52997,-73.9324 74.82929,-73.9324zM239.99949,130.79136c-27.48851,0 -49.80562,22.04962 -49.80562,49.20866c0,27.15903 22.31711,49.20866 49.80562,49.20866c27.488,0 49.80662,-22.04962 49.80662,-49.20866c0,-27.15903 -22.31861,-49.20866 -49.80662,-49.20866z"/></g></g></g></g></svg>