<svg version="1.1" xmlns="http://www.w3.org/2000/svg" xmlns:xlink="http://www.w3.org/1999/xlink" width="147.66615" height="146.60055" viewBox="0,0,147.66615,146.60055"><g transform="translate(-166.16693,-106.69972)"><g data-paper-data="{&quot;isPaintingLayer&quot;:true}" stroke="none" stroke-width="1" stroke-linecap="butt" stroke-dasharray="" stroke-dashoffset="0" style="mix-blend-mode: normal"><path d="M287.71334,111.14645c5.97226,-5.92915 15.669,-5.92883 21.64103,0.00009c5.97101,5.92978 5.97221,15.55552 -0.00005,21.48466l-117.06772,116.22272c-5.97138,5.92814 -15.669,5.92883 -21.64103,-0.00009c-5.97203,-5.92892 -5.97133,-15.55652 0.00093,-21.48567z" fill="#000000" fill-rule="nonzero" stroke-linejoin="miter" stroke-miterlimit="10"/><path d="M170.64619,132.63217c-5.9719,-5.92898 -5.9719,-15.55596 0.00007,-21.48483c5.97207,-5.92895 15.66917,-5.92905 21.64107,-0.00007l8.55801,8.49529c5.97101,5.92978 5.97133,15.55653 -0.00093,21.48567c-5.97226,5.92915 -15.669,5.92883 -21.64103,-0.00009z" fill="#000000" fill-rule="nonzero" stroke-linejoin="miter" stroke-miterlimit="10"/><g fill="#ff7ab5" fill-rule="evenodd" stroke-linejoin="round" stroke-miterlimit="2"><g><path d="M172.59755,130.69489c-4.89517,-4.85965 -4.89508,-12.75071 -0.00005,-17.6104c4.89522,-4.85987 12.84358,-4.85986 17.73865,-0.00013l8.55761,8.49565c4.89492,4.85996 4.89481,12.751 0.00035,17.61012c-4.89547,4.85999 -12.84389,4.86011 -17.73899,0.00035z"/></g><g><path d="M289.66579,113.0838c4.89502,-4.85987 12.84337,-4.85987 17.73859,0c4.89502,4.85969 4.89502,12.75066 0,17.61053l-117.06722,116.22227c-4.89502,4.85913 -12.84357,4.85913 -17.73784,0c-4.89635,-4.85913 -4.89635,-12.75028 0,-17.61128z"/></g></g></g></g></svg>