<svg version="1.1" xmlns="http://www.w3.org/2000/svg" xmlns:xlink="http://www.w3.org/1999/xlink" width="147.66417" height="146.59769" viewBox="0,0,147.66417,146.59769"><g transform="translate(-166.16792,-106.70116)"><g data-paper-data="{&quot;isPaintingLayer&quot;:true}" stroke="none" stroke-width="1" stroke-linecap="butt" stroke-dasharray="" stroke-dashoffset="0" style="mix-blend-mode: normal"><path d="M218.35821,180.00018l-47.71193,-47.36748c-5.96301,-5.9387 -5.96931,-15.55827 0.00415,-21.48997c5.96471,-5.92165 15.66435,-5.92407 21.6361,0.00456l47.71331,47.36886l47.71767,-47.37319c5.96471,-5.92165 15.66435,-5.92407 21.6361,0.00456c5.97175,5.92864 5.96931,15.55826 0.0046,21.47991c0,0 -38.52523,38.2471 -47.71767,47.37319l34.54455,34.29516c5.97175,5.92864 5.97806,15.5482 0.0046,21.47991c-5.97483,5.93033 -15.67449,5.93276 -21.64624,0.00412l-34.54455,-34.29516l-47.70754,47.3645c-5.98358,5.94039 -15.66435,5.92408 -21.64624,0.00412c-5.97175,-5.92864 -5.9693,-15.55827 0.00553,-21.4886z" fill="#000000" fill-rule="nonzero" stroke-linejoin="miter" stroke-miterlimit="10"/><path d="" fill="#000000" fill-rule="nonzero" stroke-linejoin="miter" stroke-miterlimit="10"/><path d="" fill="#000000" fill-rule="nonzero" stroke-linejoin="miter" stroke-miterlimit="10"/><g fill="#ff7ab5"><g fill-rule="evenodd" stroke-linejoin="round" stroke-miterlimit="2"><path d=""/></g><g fill-rule="nonzero" stroke-linejoin="miter" stroke-miterlimit="10"><path d=""/><path d=""/></g></g><path d="M222.26372,180.00127l-49.66413,-49.30578c-4.89523,-4.8597 -4.89512,-12.75076 -0.00009,-17.61045c4.89522,-4.85988 12.84365,-4.85981 17.7387,-0.0001l49.66431,49.30577l49.66418,-49.30582c4.8945,-4.85966 12.8433,-4.85978 17.73834,0.0001c4.89505,4.85971 4.8953,12.75075 0.0008,17.61059l-49.66382,49.30561l36.49504,36.23233c4.89505,4.85971 4.8953,12.75075 -0.00098,17.61069c-4.89446,4.85913 -12.84324,4.8589 -17.73829,-0.00081l-36.49528,-36.23143l-49.66432,49.30512c-4.89511,4.86093 -12.84353,4.86068 -17.73875,0.00098c-4.89505,-4.85971 -4.89511,-12.75111 0.00012,-17.61099z" fill="#ff7ab5" fill-rule="evenodd" stroke-linejoin="round" stroke-miterlimit="2"/></g></g></svg>