<svg version="1.1" xmlns="http://www.w3.org/2000/svg" xmlns:xlink="http://www.w3.org/1999/xlink" width="141.07984" height="140.06116" viewBox="0,0,141.07984,140.06116"><g transform="translate(-172.76079,-106.65038)"><g data-paper-data="{&quot;isPaintingLayer&quot;:true}" stroke="none" stroke-width="1" stroke-linecap="butt" stroke-dasharray="" stroke-dashoffset="0" style="mix-blend-mode: normal"><g><path d="M287.71719,111.0963c5.97483,-5.93033 15.66435,-5.92407 21.64623,-0.00412c5.97175,5.92864 5.96931,15.55826 -0.00553,21.48859l-110.47924,109.68166c-5.97346,5.9317 -15.6731,5.93413 -21.63611,-0.00456c-5.97175,-5.92864 -5.97806,-15.54821 -0.0046,-21.47991z" fill="#000000" fill-rule="nonzero" stroke-linejoin="miter" stroke-miterlimit="10"/><path d="M289.67437,113.03151c4.89512,-4.85978 12.84352,-4.85983 17.73855,-0.00014c4.89522,4.85988 4.89518,12.7509 0.00006,17.61069l-110.48303,109.68561c-4.89512,4.85996 -12.84354,4.8591 -17.73782,-0.00003c-4.8963,-4.85918 -4.89537,-12.75127 -0.00007,-17.61123z" fill="#ff7ab5" fill-rule="evenodd" stroke-linejoin="round" stroke-miterlimit="2"/></g></g></g></svg>