<svg version="1.1" xmlns="http://www.w3.org/2000/svg" xmlns:xlink="http://www.w3.org/1999/xlink" width="92.84733" height="136.62463" viewBox="0,0,92.84733,136.62463"><g transform="translate(-224.73506,-103.348)"><g data-paper-data="{&quot;isPaintingLayer&quot;:true}" fill-rule="evenodd" stroke="none" stroke-width="1" stroke-linecap="butt" stroke-linejoin="round" stroke-miterlimit="2" stroke-dasharray="" stroke-dashoffset="0" style="mix-blend-mode: normal"><path d="M239.99949,133.51096c-8.42472,0 -15.26443,-6.75774 -15.26443,-15.08148c0,-8.32374 6.83973,-15.08148 15.26443,-15.08148c42.81751,0 77.5829,34.34673 77.5829,76.65201c0,22.02984 -9.42392,41.90329 -24.50569,55.8905c-6.14331,5.69636 -15.81246,5.39398 -21.57791,-0.67495c-5.76545,-6.06894 -5.45767,-15.6212 0.68314,-21.3178c9.14866,-8.48371 14.87157,-20.5353 14.87157,-33.89774c0,-25.65805 -21.08495,-46.48905 -47.05402,-46.48905z" fill="#000000"/><path d="M239.99949,130.79135c-6.90554,0 -12.51183,-5.53911 -12.51183,-12.36187c0,-6.82276 5.6063,-12.36187 12.51183,-12.36187c41.29857,0 74.83028,33.12809 74.83028,73.9324c0,21.24832 -9.0911,40.41664 -23.63736,53.9074c-5.03476,4.66932 -12.95977,4.42159 -17.68673,-0.55307c-4.72447,-4.97466 -4.47423,-12.80418 0.56054,-17.4735c9.68416,-8.98015 15.73989,-21.73711 15.73989,-35.88082c0,-27.15903 -22.31861,-49.20866 -49.80662,-49.20866z" fill="#00caff"/></g></g></svg>